<?xml version="1.0" encoding="UTF-8" standalone="no"?>

<svg
   viewBox="0 0 210 32.839458"
   version="1.1"
   id="svg1"
   xml:space="preserve"
   xmlns:inkscape="http://www.inkscape.org/namespaces/inkscape"
   xmlns:sodipodi="http://sodipodi.sourceforge.net/DTD/sodipodi-0.dtd"
   xmlns="http://www.w3.org/2000/svg"
   xmlns:svg="http://www.w3.org/2000/svg"><sodipodi:namedview
     id="namedview1"
     pagecolor="#ffffff"
     bordercolor="#000000"
     borderopacity="0.25"
     inkscape:showpageshadow="2"
     inkscape:pageopacity="0.0"
     inkscape:pagecheckerboard="0"
     inkscape:deskcolor="#d1d1d1"
     inkscape:document-units="mm" /><defs
     id="defs1" /><g
     inkscape:label="Layer 1"
     inkscape:groupmode="layer"
     id="layer1"><path
       style="fill:#000000;stroke-width:1"
       d="M 2.1038404e-6,27.032839 V 21.226221 H 3.5806475 7.1612926 v 2.225808 2.225806 H 9.1935509 11.225809 V 22.84338 20.008928 L 8.4032285,19.982009 C 5.4168955,19.953539 5.4537008,19.956942 4.4581308,19.617284 2.9867262,19.115288 1.6705571,18.047495 0.90193037,16.732178 0.6073844,16.228136 0.38703952,15.677316 0.18336326,14.935899 0.04452158,14.430492 0.04106128,14.321935 0.01678318,9.7100918 -0.00910458,4.7924811 0.00878858,4.3520968 0.26480008,3.6041374 0.85163133,1.8896926 2.0592898,0.70375039 3.7007679,0.22995502 L 4.2725013,0.06493083 h 4.8666212 c 5.4781235,0 5.2681465,-0.01623113 6.3124935,0.48806362 1.122492,0.54203235 1.935356,1.34098995 2.424379,2.38290435 0.482367,1.0277334 0.466908,0.8721081 0.494204,4.9750444 l 0.02451,3.6847228 -0.205419,0.04109 c -0.26432,0.05286 -6.401551,0.05256 -6.721549,-3.26e-4 L 11.225805,11.59645 V 9.3790788 7.1617052 H 9.1935509 7.1612926 v 2.8387088 2.838711 l 2.33871,0.0012 c 3.1732904,0.0015 3.8832754,0.09077 5.0421054,0.633811 1.891131,0.886215 3.170947,2.512325 3.697579,4.698076 0.09145,0.379587 0.111422,1.071239 0.142986,4.953591 l 0.03668,4.512403 0.507828,-2.318855 c 0.279306,-1.275369 0.529715,-2.420466 0.556464,-2.54466 0.198379,-0.921057 0.805307,-3.68322 0.907266,-4.129031 0.110828,-0.484581 0.887186,-4.010406 2.322672,-10.5483882 0.249307,-1.1354842 0.496865,-2.2532272 0.550127,-2.4838723 0.05326,-0.2306451 0.349638,-1.5776794 0.658613,-2.9934093 l 0.561773,-2.57405508 18.032146,0.0094673 18.032147,0.0094673 0.01625,16.38720328 0.01625,16.387202 H 57.000132 53.419361 V 20.000415 7.1617052 h -9.391445 c -8.913764,0 -9.389771,0.00579 -9.358526,0.1129031 0.0181,0.062095 0.166129,0.7225808 0.328941,1.4677411 0.162813,0.7451614 0.309833,1.4129036 0.326714,1.4838716 0.01688,0.07097 0.307628,1.391935 0.646109,2.935483 0.33848,1.543549 0.689227,3.125807 0.779436,3.51613 0.09021,0.390322 0.230838,1.029031 0.312508,1.419355 0.115013,0.549683 1.192933,5.458573 1.870014,8.516129 0.681089,3.075651 1.324958,6.054628 1.324958,6.130154 0,0.0834 -0.466264,0.09565 -3.638487,0.09565 H 32.981096 L 32.8201,32.145575 C 32.731549,31.764123 32.491939,30.68993 32.287628,29.758478 L 31.916151,28.06493 h -2.893557 c -1.840966,0 -2.893558,-0.02293 -2.893558,-0.06304 0,-0.03467 0.157348,-0.549997 0.349663,-1.145162 0.192315,-0.595165 0.528802,-1.648247 0.74775,-2.340183 0.218946,-0.691935 0.528656,-1.664516 0.688241,-2.161289 0.159585,-0.496775 0.322701,-1.00484 0.362481,-1.129033 0.125535,-0.391924 0.111508,-0.387097 1.124824,-0.387097 h 0.934578 l -0.0387,-0.154185 c -0.03589,-0.143001 -0.445985,-1.979467 -0.55625,-2.490977 -0.436268,-2.023794 -0.937573,-4.244908 -0.954301,-4.228179 -0.03527,0.03527 -0.44598,1.867552 -1.598513,7.131406 -0.0505,0.230645 -0.133599,0.608064 -0.184665,0.838709 -0.05107,0.230645 -0.149743,0.680645 -0.219283,1.000001 -0.06954,0.319354 -0.379291,1.727419 -0.688336,3.129032 -0.309043,1.401612 -0.602763,2.737096 -0.652711,2.967742 -0.04995,0.230645 -0.258477,1.174193 -0.463397,2.096774 l -0.372584,1.677419 -12.303917,0.0163 L 0,32.839456 Z M 41.225812,20.650151 V 8.4611754 l 0.33871,-0.064378 c 0.18629,-0.035408 0.643548,-0.1101518 1.016128,-0.1661013 0.372581,-0.055952 1.12742,-0.1732934 1.67742,-0.2607647 0.878276,-0.1396792 2.389439,-0.3732844 3.580646,-0.5535194 0.212903,-0.03221 0.423387,-0.059149 0.467741,-0.059865 0.06425,-0.00103 0.08064,2.5894089 0.08064,12.740639 v 12.741939 h -3.58064 -3.580645 z m 20.23656,12.145963 c -0.02366,-0.02366 -0.04301,-2.636803 -0.04301,-5.806994 v -5.763982 l 3.596774,0.01667 3.596775,0.01667 v 2.209694 2.209693 l 2.032258,3e-6 2.032258,4e-6 -0.01744,-2.834478 -0.01744,-2.83448 -2.821266,-0.02444 C 67.019242,19.960216 66.996268,19.958933 66.45162,19.795823 65.166745,19.411035 64.227296,18.876654 63.413379,18.067601 62.393041,17.05336 61.86424,16.061982 61.568955,14.609738 61.461861,14.083037 61.45162,13.621624 61.45162,9.3229946 c 0,-3.6919374 0.01862,-4.7933263 0.08615,-5.0967737 0.254832,-1.1450488 0.699514,-1.9647934 1.487576,-2.7422571 0.690404,-0.68112147 1.481071,-1.11869924 2.458535,-1.36062721 0.527687,-0.13060536 9.587031,-0.13095354 10.193548,-3.9131e-4 1.980301,0.42629066 3.531017,1.89231182 3.999113,3.78069482 0.119786,0.4832395 0.128002,0.7447932 0.128929,4.1044617 l 9.91e-4,3.5883342 -0.241935,0.03998 c -0.317198,0.05243 -6.456064,0.05343 -6.717743,0.0011 l -0.201612,-0.04032 V 9.3794091 7.1616673 h -2.000001 -2 v 2.8323893 2.8323904 l 2.758065,0.02998 c 2.699035,0.02935 2.771341,0.03349 3.378437,0.193768 0.849716,0.22433 1.441566,0.484153 2.071894,0.909567 1.548619,1.045174 2.520997,2.561294 2.860444,4.459963 0.07625,0.426518 0.09229,1.72308 0.09236,7.467743 l 8.8e-5,6.951613 h -9.150538 c -5.032797,0 -9.169894,-0.01935 -9.19355,-0.04301 z M 80.709686,16.419562 V 0 l 9.790323,0.01633632 c 8.656891,0.01444287 9.789291,0.02753927 9.781381,0.11311088 -0.009,0.09178 -0.15409,0.7774637 -0.376746,1.7741928 -0.05549,0.2483878 -0.125837,0.5677424 -0.156332,0.709678 -0.0305,0.1419356 -0.267624,1.2233874 -0.526952,2.4032253 l -0.471505,2.1451619 h -5.439439 -5.439439 l 0.0014,5.5645158 c 0.002,7.908954 -0.02372,16.925093 -0.05321,18.645161 l -0.02516,1.467743 h -3.542165 -3.542166 z m 13.354839,16.343557 c 0,-0.06315 0.364073,-1.740724 1.320649,-6.085285 0.04687,-0.212902 0.468472,-2.129031 0.936878,-4.258064 0.468408,-2.129032 0.89353,-4.059677 0.944717,-4.290323 0.05119,-0.230645 0.117654,-0.535483 0.147704,-0.677419 0.04305,-0.203359 0.774235,-3.523983 1.647899,-7.4838718 0.581575,-2.6359963 1.675658,-7.6069782 1.718158,-7.8064518 0.0302,-0.1419345 0.15006,-0.6790313 0.26626,-1.19354755 l 0.21129,-0.93548421 4.25435,-0.0165993 c 2.33991,-0.00915171 4.27561,0.0053648 4.30156,0.03226239 0.026,0.02686605 0.26994,1.06498397 0.54221,2.30691987 0.27226,1.2419349 0.53367,2.4322583 0.5809,2.6451607 0.14647,0.6602135 1.91497,8.6965497 1.96637,8.9354847 0.0267,0.124194 0.2724,1.241936 0.54597,2.483871 0.27356,1.241936 0.62814,2.853226 0.78796,3.580646 0.15982,0.727419 0.3262,1.482257 0.36975,1.677419 0.0435,0.195162 0.44007,2.001923 0.88117,4.015025 l 0.80201,3.660186 0.0323,-12.59567 0.0323,-12.5956714 0.17757,-0.5024181 c 0.66497,-1.8816244 1.90594,-3.04920213 3.72566,-3.50532841 0.46914,-0.11759416 1.16717,-0.12112861 22.93549,-0.11613725 21.38839,0.004944 22.47452,0.01064544 22.93549,0.1212864 1.87468,0.44995676 3.31117,1.83614356 3.84699,3.71227476 0.11481,0.4019966 0.12049,1.0102147 0.13723,14.69355 l 0.0175,14.274194 -6.62988,-4.88e-4 c -4.24687,-3.12e-4 -6.77737,-0.02443 -7.04023,-0.06707 -2.25859,-0.366487 -4.12201,-2.178366 -4.59436,-4.467293 -0.11746,-0.569169 -0.12265,-1.026618 -0.12346,-10.868372 l -8.6e-4,-10.2741935 h -8.6129 -8.6129 v 2.2173641 2.2173664 l -0.24194,0.03998 c -0.31658,0.05232 -6.4558,0.05348 -6.7169,0.0013 l -0.20078,-0.04015 -0.0169,-2.2017811 -0.0169,-2.20178 -1.91936,-0.017094 -1.91935,-0.017083 v 9.2590251 9.259024 h 1.93549 1.93548 v -2.225808 -2.225806 h 3.58471 3.58473 l -0.0265,3.435483 c -0.0273,3.542968 -0.0251,3.510678 -0.29234,4.33871 -0.50415,1.562542 -1.83583,2.920165 -3.446,3.513121 -0.91947,0.338601 -0.5986,0.329701 -11.20508,0.310828 l -9.83275,-0.01749 -0.37613,-1.709677 c -0.20687,-0.940323 -0.42152,-1.912904 -0.47701,-2.161291 -0.0555,-0.248387 -0.11771,-0.545968 -0.13828,-0.66129 l -0.0373,-0.209677 h -2.90211 -2.9021 l 0.0307,-0.17742 c 0.0168,-0.09758 0.25498,-0.874193 0.5291,-1.725807 0.27412,-0.851612 0.59495,-1.853225 0.71297,-2.225806 l 0.59258,-1.870967 0.37801,-1.193549 0.97131,-0.03226 0.97131,-0.03226 -0.1487,-0.67742 c -0.0818,-0.37258 -0.36804,-1.679032 -0.63612,-2.903225 -0.62226,-2.841536 -0.68664,-3.118772 -0.73783,-3.177429 -0.0232,-0.02661 -0.28549,1.062092 -0.58279,2.419356 -0.29731,1.357263 -0.57572,2.627428 -0.6187,2.822589 -0.36347,1.650649 -1.64561,7.460852 -2.19959,9.967742 -0.37637,1.703226 -0.70268,3.198388 -0.72511,3.322581 l -0.0408,0.225807 -3.660202,0.01666 c -2.80393,0.01276 -3.660204,-0.0014 -3.660204,-0.06041 z M 162.96775,16.41977 V 7.1617052 h -2.03226 -2.03226 v 9.2580628 9.258066 h 2.03226 2.03226 z m -23.4034,4.241936 0.0163,-12.177421 0.32258,-0.042761 c 0.17742,-0.023521 0.99032,-0.1464872 1.80645,-0.2732615 0.81614,-0.1267732 2.05001,-0.3180649 2.74194,-0.4250915 0.69193,-0.1070276 1.41532,-0.2235761 1.60753,-0.2589964 0.19221,-0.035418 0.41721,-0.064398 0.5,-0.064398 h 0.15053 V 20.129454 32.839133 h -3.58081 -3.58081 z m 31.4194,-4.225807 0.0163,-16.40322636 6.80646,0.01479 c 3.74355,0.0080998 9.14355,0.01544219 12,0.01624165 l 5.19355,0.0014727 0.44195,1.17730911 c 0.24307,0.6475189 0.68418,1.8160182 0.98025,2.5966629 0.29606,0.7806457 0.94821,2.5080639 1.4492,3.8387087 0.501,1.3306454 1.08151,2.8693563 1.29002,3.4193553 0.20852,0.550001 0.76137,2.016129 1.22855,3.258065 0.82918,2.204255 1.21164,3.210488 1.86809,4.936517 v 6.773677 6.773677 h -3.58064 -3.58065 v -7.005837 -7.005838 l -0.86464,-2.074807 c -0.47555,-1.141145 -1.05923,-2.553841 -1.29706,-3.139325 -0.42962,-1.057596 -2.72201,-6.5987352 -3.18952,-7.7096766 -0.1344,-0.3193545 -0.27003,-0.6532256 -0.30141,-0.7419361 -0.0348,-0.09846 -0.0714,1.4221014 -0.0939,3.9032251 -0.0347,3.8226226 -0.045,4.1029136 -0.17426,4.7096786 -0.33297,1.563407 -0.80883,2.705202 -1.57068,3.768833 l -0.38087,0.531724 0.35443,0.532679 c 0.59203,0.88977 1.11834,2.094411 1.4144,3.237371 0.33059,1.276225 0.32112,1.106392 0.34551,6.203586 l 0.0229,4.790323 h -3.58196 -3.58195 l -0.0182,-4.467743 -0.0182,-4.467742 -0.17619,-0.519478 c -0.44624,-1.315713 -1.17809,-1.765457 -2.87952,-1.769547 l -0.53958,-0.0013 0.0372,-0.274193 c 0.12122,-0.893368 0.46769,-3.400391 0.65757,-4.758065 0.12159,-0.869355 0.23761,-1.702569 0.25782,-1.85159 0.0243,-0.17883 0.0739,-0.281102 0.14618,-0.300818 0.0602,-0.01643 0.26911,-0.06531 0.46428,-0.108629 0.45837,-0.101731 1.07223,-0.379432 1.33997,-0.606178 0.28096,-0.237941 0.49922,-0.626764 0.62298,-1.109838 0.0839,-0.327528 0.10151,-0.834808 0.10151,-2.919356 V 7.1617641 h -2.03226 -2.03225 V 20.000473 32.839185 h -3.58078 -3.58077 z m -82.596644,5.021038 c 0,-0.0866 0.08532,-0.848946 0.189609,-1.69409 0.104288,-0.845144 0.281025,-2.320496 0.392756,-3.278561 0.111729,-0.958065 0.215668,-1.807258 0.230974,-1.887097 l 0.02782,-0.145161 h 3.934256 c 3.474369,0 3.934255,0.01145 3.934255,0.09791 0,0.05385 -0.119533,0.641754 -0.265628,1.306452 -0.146096,0.664698 -0.290744,1.324671 -0.321443,1.466607 -0.0307,0.141935 -0.25413,1.158065 -0.496518,2.258064 l -0.440705,2 -3.592692,0.01667 -3.592693,0.01667 z M 202.2015,18.539186 c -0.17759,-0.678285 -2.58859,-10.9152613 -2.58859,-10.9910185 0,-0.048252 0.187,-0.5831661 0.41555,-1.1887061 0.77765,-2.0930004 1.59608,-4.1710908 2.35864,-6.26966528 0,-0.01367497 1.71291,-0.0248674 3.80646,-0.0248674 2.09354,0 3.80644,0.01450598 3.80644,0.03224136 -2.13102,5.22299732 -4.29959,10.43118292 -6.45305,15.64517592 -0.68138,1.649999 -1.24821,3.010188 -1.25963,3.02264 -0.0115,0.01245 -0.0501,-0.08916 -0.0858,-0.225807 z"
       id="path1"
       sodipodi:nodetypes="ccccccccccssssssscsssscssccccccccssscsssssscccccccccsssssssssscsscssssssscsssssssssccccccsssssscccccscccccccccssssssssssscsccccccccssssscsccccscsssccccscccccssssscscccssssssscccsscssscscsscccccsscccccccccccccscsscsccccccsccccccssscsccscccccccccccccssssscccccccccscssssscccccccssssssscssscccccsscssssssssccccccccsssscssssscccsssssssssss" /></g></svg>
